<?xml version="1.0" standalone="no"?>
<!DOCTYPE svg PUBLIC "-//W3C//DTD SVG 20010904//EN"
 "http://www.w3.org/TR/2001/REC-SVG-20010904/DTD/svg10.dtd">
<svg version="1.0" xmlns="http://www.w3.org/2000/svg"
 width="530.000000pt" height="530.000000pt" viewBox="0 0 530.000000 530.000000"
 preserveAspectRatio="xMidYMid meet">
<metadata>
Created by potrace 1.14, written by Peter Selinger 2001-2017
</metadata>
<g transform="translate(0.000000,530.000000) scale(0.100000,-0.100000)"
fill="#000000" stroke="none">
<path d="M442 5218 c-6 -6 -12 -19 -12 -27 0 -9 404 -1168 898 -2576 859
-2452 898 -2560 921 -2560 22 0 177 248 1343 2149 823 1341 1318 2157 1316
2169 -2 11 -10 24 -18 28 -8 5 -1000 191 -2205 414 -1204 224 -2199 409 -2210
411 -11 3 -26 -1 -33 -8z m2217 -513 c1141 -218 2077 -398 2079 -400 2 -2
-549 -906 -1224 -2009 -676 -1103 -1232 -2002 -1236 -1998 -3 4 -385 1073
-846 2377 -462 1304 -845 2382 -851 2398 -6 15 -7 27 -4 27 4 0 941 -178 2082
-395z"/>
</g>
</svg>
